<mxfile host="app.diagrams.net" modified="2023-09-28T03:09:05.668Z" agent="Mozilla/5.0 (X11; Linux x86_64) AppleWebKit/537.36 (KHTML, like Gecko) Chrome/117.0.0.0 Safari/537.36" version="21.8.2" etag="N9D7FZwa5cqI4o1buhj4" type="github">
  <diagram name="Page-1" id="rw6ZucnFjYjoOytTjqVy">
    <mxGraphModel>
      <root>
        <mxCell id="0" />
        <mxCell id="1" parent="0" />
      </root>
    </mxGraphModel>
  </diagram>
</mxfile>
